<svg width="100" height="100" viewBox="0 0 100 100" fill="none" xmlns="http://www.w3.org/2000/svg">
<path d="M19.7917 7.8125C14.9016 7.8125 10.9375 11.7766 10.9375 16.6667C10.9375 21.5567 14.9016 25.5208 19.7917 25.5208C24.6817 25.5208 28.6458 21.5567 28.6458 16.6667C28.6458 11.7766 24.6817 7.8125 19.7917 7.8125Z" fill="white"/>
<path d="M11.4583 32.8125C11.1707 32.8125 10.9375 33.0457 10.9375 33.3333V87.5C10.9375 87.7876 11.1707 88.0208 11.4583 88.0208H28.125C28.4126 88.0208 28.6458 87.7876 28.6458 87.5V33.3333C28.6458 33.0457 28.4126 32.8125 28.125 32.8125H11.4583Z" fill="white"/>
<path d="M38.5417 32.8125C38.254 32.8125 38.0208 33.0457 38.0208 33.3333V87.5C38.0208 87.7876 38.254 88.0208 38.5417 88.0208H55.2083C55.496 88.0208 55.7292 87.7876 55.7292 87.5V58.3333C55.7292 56.2613 56.5523 54.2742 58.0174 52.8091C59.4825 51.3439 61.4697 50.5208 63.5417 50.5208C65.6137 50.5208 67.6008 51.3439 69.0659 52.8091C70.5311 54.2742 71.3542 56.2613 71.3542 58.3333V87.5C71.3542 87.7876 71.5873 88.0208 71.875 88.0208H88.5417C88.8293 88.0208 89.0625 87.7876 89.0625 87.5V51.5844C89.0625 41.4729 80.2683 33.5625 70.2077 34.4771C67.105 34.7591 64.0373 35.5305 61.1728 36.7581L55.7292 39.0911V33.3333C55.7292 33.0457 55.496 32.8125 55.2083 32.8125H38.5417Z" fill="white"/>
</svg>
