<svg width="100" height="101" viewBox="0 0 100 101" fill="none" xmlns="http://www.w3.org/2000/svg">
<path d="M49.9977 7.01809C40.8842 7.0289 32.1471 10.654 25.7028 17.0982C19.2586 23.5425 15.6335 32.2796 15.6227 41.3931C15.6227 70.8059 46.8727 93.0227 48.2033 93.9535C48.7295 94.321 49.3559 94.5181 49.9977 94.5181C50.6395 94.5181 51.2659 94.321 51.7921 93.9535C53.1227 93.0227 84.3727 70.8059 84.3727 41.3931C84.3619 32.2796 80.7368 23.5425 74.2926 17.0982C67.8483 10.654 59.1112 7.0289 49.9977 7.01809V7.01809ZM50 28.8942C52.4723 28.8942 54.889 29.6273 56.9446 31.0009C59.0002 32.3744 60.6024 34.3266 61.5485 36.6107C62.4946 38.8948 62.7421 41.4081 62.2598 43.8329C61.7775 46.2576 60.587 48.4849 58.8388 50.2331C57.0907 51.9812 54.8634 53.1717 52.4386 53.654C50.0139 54.1364 47.5005 53.8888 45.2164 52.9427C42.9324 51.9966 40.9801 50.3945 39.6066 48.3388C38.2331 46.2832 37.5 43.8665 37.5 41.3942C37.4999 39.7527 37.8232 38.1272 38.4514 36.6106C39.0796 35.094 40.0003 33.716 41.161 32.5553C42.3218 31.3945 43.6998 30.4738 45.2164 29.8456C46.733 29.2175 48.3585 28.8942 50 28.8942V28.8942Z" fill="white"/>
</svg>
