<svg width="101" height="101" viewBox="0 0 101 101" fill="none" xmlns="http://www.w3.org/2000/svg">
<path d="M87.6923 88.0962C87.6922 88.925 87.363 89.7198 86.7769 90.3058C86.1909 90.8919 85.396 91.2211 84.5673 91.2212C81.2532 91.2174 78.076 89.8992 75.7326 87.5558C73.3892 85.2124 72.0711 82.0352 72.0673 78.7212V75.5962C72.0654 73.9392 71.4063 72.3505 70.2346 71.1789C69.0629 70.0072 67.4743 69.3481 65.8173 69.3462H61.1298V84.9712C61.1317 86.6282 61.7907 88.2168 62.9624 89.3885C64.1341 90.5602 65.7227 91.2193 67.3798 91.2212C68.2086 91.2212 69.0034 91.5504 69.5895 92.1365C70.1755 92.7225 70.5048 93.5174 70.5048 94.3462C70.5048 95.175 70.1755 95.9698 69.5895 96.5559C69.0034 97.1419 68.2086 97.4712 67.3798 97.4712C64.0657 97.4674 60.8885 96.1492 58.5451 93.8058C56.2017 91.4624 54.8836 88.2852 54.8798 84.9712V69.3462H45.5048V84.9712C45.501 88.2852 44.1828 91.4624 41.8394 93.8058C39.496 96.1492 36.3188 97.4674 33.0048 97.4712C32.176 97.4712 31.3811 97.1419 30.7951 96.5559C30.209 95.9698 29.8798 95.175 29.8798 94.3462C29.8798 93.5174 30.209 92.7225 30.7951 92.1365C31.3811 91.5504 32.176 91.2212 33.0048 91.2212C34.6618 91.2193 36.2504 90.5602 37.4221 89.3885C38.5938 88.2168 39.2529 86.6282 39.2548 84.9712V69.3462H34.5673C32.9102 69.3481 31.3216 70.0072 30.1499 71.1789C28.9782 72.3505 28.3192 73.9392 28.3173 75.5962V78.7212C28.3135 82.0352 26.9953 85.2124 24.6519 87.5558C22.3085 89.8992 19.1313 91.2174 15.8173 91.2212C14.9885 91.2212 14.1936 90.8919 13.6076 90.3059C13.0215 89.7198 12.6923 88.925 12.6923 88.0962C12.6923 87.2674 13.0215 86.4725 13.6076 85.8865C14.1936 85.3004 14.9885 84.9712 15.8173 84.9712C17.4743 84.9693 19.0629 84.3102 20.2346 83.1385C21.4063 81.9668 22.0654 80.3782 22.0673 78.7212V75.5962C22.0685 73.4978 22.598 71.4335 23.6071 69.5936C24.6161 67.7537 26.0722 66.1976 27.841 65.0686C25.0825 63.0379 22.8399 60.3872 21.2942 57.3305C19.7485 54.2738 18.9428 50.8965 18.9423 47.4712V44.3462C18.98 40.462 20.015 36.6527 21.948 33.2836C20.9916 30.2025 20.6845 26.9567 21.046 23.751C21.4075 20.5452 22.4299 17.4493 24.0484 14.6587C24.3227 14.1836 24.7172 13.7891 25.1922 13.5148C25.6673 13.2405 26.2062 13.0961 26.7548 13.0962C30.3951 13.088 33.9869 13.9316 37.243 15.5593C40.4992 17.1871 43.3295 19.554 45.5076 22.4708L54.8767 22.4712C57.0548 19.5542 59.8851 17.1872 63.1413 15.5594C66.3975 13.9316 69.9893 13.088 73.6298 13.0962C74.1783 13.0961 74.7172 13.2405 75.1923 13.5148C75.6674 13.7891 76.0618 14.1836 76.3361 14.6587C77.9547 17.4493 78.977 20.5452 79.3385 23.751C79.7 26.9567 79.3928 30.2026 78.4363 33.2836C80.3694 36.6527 81.4045 40.462 81.4423 44.3462V47.4712C81.4417 50.8965 80.6361 54.2738 79.0903 57.3305C77.5446 60.3872 75.302 63.0379 72.5435 65.0686C74.3123 66.1976 75.7684 67.7537 76.7774 69.5936C77.7865 71.4335 78.316 73.4978 78.3173 75.5962V78.7212C78.3192 80.3782 78.9782 81.9668 80.1499 83.1385C81.3216 84.3102 82.9102 84.9693 84.5673 84.9712C85.396 84.9712 86.1909 85.3005 86.7769 85.8865C87.363 86.4726 87.6922 87.2674 87.6923 88.0962V88.0962Z" fill="white"/>
</svg>
