<svg width="100" height="100" viewBox="0 0 100 100" fill="none" xmlns="http://www.w3.org/2000/svg">
<path fill-rule="evenodd" clip-rule="evenodd" d="M27.9654 16.5451C42.6259 15.2343 57.3742 15.2343 72.0347 16.5451L78.357 17.1104C84.6585 17.6738 89.75 22.4879 90.6652 28.748C92.7256 42.841 92.7256 57.1588 90.6652 71.2518C89.75 77.5119 84.6585 82.326 78.357 82.8894L72.0347 83.4547C57.3742 84.7655 42.6259 84.7655 27.9654 83.4547L21.6431 82.8894C15.3416 82.326 10.2501 77.5119 9.3349 71.2518C7.27452 57.1588 7.27451 42.841 9.3349 28.748C10.2501 22.4879 15.3416 17.6738 21.6431 17.1104L27.9654 16.5451ZM24.3982 28.4984C23.4298 27.977 22.2585 28.003 21.3142 28.567C20.3699 29.1311 19.7917 30.15 19.7917 31.2499V70.8332C19.7917 72.5591 21.1908 73.9582 22.9167 73.9582C24.6426 73.9582 26.0417 72.5591 26.0417 70.8332V36.4818L48.5184 48.5847C49.4434 49.0827 50.5566 49.0827 51.4816 48.5847L73.9583 36.4818V70.8332C73.9583 72.5591 75.3575 73.9582 77.0833 73.9582C78.8092 73.9582 80.2083 72.5591 80.2083 70.8332V31.2499C80.2083 30.15 79.6301 29.1311 78.6858 28.567C77.7415 28.003 76.5702 27.977 75.6018 28.4984L50 42.284L24.3982 28.4984Z" fill="white"/>
</svg>
